<?xml version="1.0" encoding="UTF-8" standalone="no"?>
<!-- Created with Inkscape (http://www.inkscape.org/) -->

<svg
   xmlns:dc="http://purl.org/dc/elements/1.1/"
   xmlns:cc="http://creativecommons.org/ns#"
   xmlns:rdf="http://www.w3.org/1999/02/22-rdf-syntax-ns#"
   xmlns:svg="http://www.w3.org/2000/svg"
   xmlns="http://www.w3.org/2000/svg"
   xmlns:xlink="http://www.w3.org/1999/xlink"
   xmlns:sodipodi="http://sodipodi.sourceforge.net/DTD/sodipodi-0.dtd"
   xmlns:inkscape="http://www.inkscape.org/namespaces/inkscape"
   id="svg2483"
   sodipodi:version="0.32"
   inkscape:version="0.47 r22583"
   width="800"
   height="400"
   version="1.0"
   sodipodi:docname="logoSTwosub.svg"
   style="display:inline"
   inkscape:output_extension="org.inkscape.output.svg.inkscape">
  <metadata
     id="metadata2488">
    <rdf:RDF>
      <cc:Work
         rdf:about="">
        <dc:format>image/svg+xml</dc:format>
        <dc:type
           rdf:resource="http://purl.org/dc/dcmitype/StillImage" />
        <dc:title></dc:title>
      </cc:Work>
    </rdf:RDF>
  </metadata>
  <defs
     id="defs2486">
    <linearGradient
       id="linearGradient6577">
      <stop
         id="stop6579"
         offset="0"
         style="stop-color:#b8e6fb;stop-opacity:1;" />
      <stop
         id="stop6581"
         offset="1"
         style="stop-color:#7e9dab;stop-opacity:1" />
    </linearGradient>
    <linearGradient
       id="linearGradient6559">
      <stop
         style="stop-color:#b8e6fb;stop-opacity:1;"
         offset="0"
         id="stop6561" />
      <stop
         style="stop-color:#7e9dab;stop-opacity:1"
         offset="1"
         id="stop6563" />
    </linearGradient>
    <linearGradient
       inkscape:collect="always"
       xlink:href="#linearGradient6559"
       id="linearGradient3199"
       gradientUnits="userSpaceOnUse"
       spreadMethod="reflect"
       x1="1505.0367"
       y1="1416.762"
       x2="1505.0367"
       y2="1589.0271" />
    <linearGradient
       inkscape:collect="always"
       xlink:href="#linearGradient6577"
       id="linearGradient3207"
       gradientUnits="userSpaceOnUse"
       spreadMethod="reflect"
       x1="2950.8125"
       y1="1665.4441"
       x2="2950.8125"
       y2="1841.0002" />
    <linearGradient
       inkscape:collect="always"
       xlink:href="#linearGradient6577"
       id="linearGradient3213"
       gradientUnits="userSpaceOnUse"
       spreadMethod="reflect"
       x1="2320.2764"
       y1="1714.0907"
       x2="2320.2764"
       y2="1832.2911" />
  </defs>
  <sodipodi:namedview
     inkscape:window-height="739"
     inkscape:window-width="1268"
     inkscape:pageshadow="2"
     inkscape:pageopacity="0"
     guidetolerance="10.0"
     gridtolerance="10.0"
     objecttolerance="10.0"
     borderopacity="1.0"
     bordercolor="#666666"
     pagecolor="#ffffff"
     id="base"
     showgrid="false"
     inkscape:zoom="0.972"
     inkscape:cx="400"
     inkscape:cy="167.69547"
     inkscape:window-x="0"
     inkscape:window-y="0"
     inkscape:current-layer="layer2"
     inkscape:window-maximized="1" />
  <g
     inkscape:groupmode="layer"
     id="layer2"
     inkscape:label="Ebene#1"
     style="display:inline"
     transform="translate(0,-100)">
    <g
       id="g3100"
       transform="translate(-0.78640226,4.9019332)">
      <g
         transform="matrix(0.22273738,0,0,0.22273738,181.19472,243.32678)"
         id="g3116">
        <path
           id="path2412"
           style="fill:#eb8e98;fill-opacity:1;display:inline"
           d="m 2019.5218,-211.06084 -13.4711,27.00456 c 0,0 81.714,18.14189 84.4443,75.47777 l -181.9608,657.14601 -115.582,87.95236 6.9077,29.06741 c 219.966,-12.05364 191.2069,-383.31499 413.1508,-272.04596 l 39.2692,175.74849 c 0,0 -80.2011,66.79248 -80.2011,66.79248 0,0 283.2967,166.2904 114.0192,-846.64306 l -266.5762,-0.50006 z m 142.5553,378.06385 27.5202,109.51853 -91.187,0 63.6668,-109.51853 z M 1393.301,640.343 c 682.1232,14.00237 460.3252,-649.8912299 370.1697,-815.0737 -72.7674,-30.21093 -138.7971,-33.65908 -176.4947,-35.65002 l -210.0315,0 c 0,0 -17.7061,19.13003 -25.0042,30.32511 33.1331,8.4114 66.6119,10.05236 96.5282,81.513788 l 0,659.908382 -38.8276,22.58972 c -39.8748,-73.84798 -55.2923,-170.79444 0.309,-334.81434 l -62.8426,0 -103.166,299.18352 -41.5364,0 C 1169.6416,362.6665 989.23786,61.676147 1284.1478,-210.38072 l -915.29896,0 97.473,-158.70681 -945.50346,0 -125.39868,343.028604 C -441.77212,-123.88172 -265.5114,-406.8057 212.18257,-282.47982 -182.54266,450.98261 -592.70909,843.88979 -348.51511,825.84864 c 630.14178,40.2319 710.42387,-78.80661 779.79979,-181.70249 0,0 962.01632,-3.80315 962.01632,-3.80315 z m -1174.93537,118.74057 -463.66416,0.02 c 0,0 562.21998,-1246.51017 693.27336,-864.27113 l -0.0942,670.73797 -229.51521,193.5132 z m 765.51239,-871.56528 0.5001,669.14438 -54.34508,37.02175 c -36.0154,8.72237 -47.82646,-296.12621 0.32811,-339.6667 l -63.00265,0 -99.10653,294.28454 -113.16763,0 C 449.04938,232.24884 765.31109,294.60658 825.32128,72.569077 l -32.8194,-13.646803 -84.18997,101.591676 -52.89565,0 C 582.55856,-1.854676 580.18917,-190.67963 763.28608,-105.33204 l 103.56829,251.92537 c 109.4945,0 -40.00284,-441.10577 117.02365,-259.07504 z m 670.11318,18.440663 c 50.1974,8.245214 124.0196,125.63838 124.0196,318.910767 0,191.51777 -75.9135,316.98455 -124.0196,322.35355 -123.3762,-112.14141 -94,-682.95811 0,-641.264317 z"
           sodipodi:nodetypes="ccccccccccccccccccccccccccccccccccccccccccccccccccccccccccc" />
        <path
           d="m 135.85194,-236.24867 -718.45728,1089.33641 31.13027,21.78489 c 0,0 352.31117,-488.64946 352.31117,-488.64946 0,0 215.726785,-92.2149 215.726785,-92.2149 0,0 -51.516171,-151.66482 -51.516171,-151.66482 0,0 234.127996,-410.80952 234.127996,-410.80952 0,0 -63.32277,32.2174 -63.32277,32.2174 z"
           style="fill:#e26a75;fill-opacity:1;display:inline"
           id="path2407"
           sodipodi:nodetypes="cccccccc" />
        <path
           id="path3194"
           style="fill:#621a20;fill-opacity:1;display:inline"
           d="m 466.32192,-369.08753 c 0,0 -35.66702,38.87846 -35.66702,38.87846 -860.14537,8.00135 -824.82216,3.62869 -980.84854,260.672168 0,0 -54.38419,43.476067 -54.38419,43.476067 l 26.37947,21.159812 286.51326,-231.164067 427.41986,-0.004 c 0,0 61.35418,-31.03648 61.35418,-31.03648 0,0 -674.5464,1114.56064 -740.53142,1122.22474 0,0 -39.15896,-2.03035 -39.15896,-2.03035 l 17.88193,31.02745 933.30613,-0.99237 77.10671,-218.03683 1157.78937,-0.0312 14.5025,-1.00017 c 51.2653,-3.5405 94.4129,-12.19086 134.8666,-27.06717 22.757,-8.07647 44.2896,-18.2956 64.167,-31.41151 21.3464,-13.49598 40.8624,-29.37216 58.2286,-47.3518 58.2619,-60.32059 93.0775,-144.58257 104.205,-252.19881 l 3.9695,-79.95099 c -0.08,-23.24688 -0.9594,-46.89379 -3.9069,-71.57461 -8.4477,-83.34953 -30.4892,-151.6397061 -66.605,-206.31628 -45.812,-68.17955 -97.0236,-99.64088 -149.4393,-122.91549 l -15.5886,26.5242 -339.9274,-31.84915 -56.0142,0 96.528,82.232666 c 0,0 37.0607,-17.858486 37.0607,-17.858486 71.0952,-10.15648 246.5832,732.73099 -91.9259,752.26379 0,0 16.3467,-52.80582 16.3467,-52.80582 l 0,-334.63461 -36.4124,27.97344 c -14.8567,175.85237 -18.3981,426.73845 -204.6283,300.95711 l 33.4957,-29.74703 0,-658.72083 c 30.1565,-23.84125 61.9548,-44.6986 91.5254,-69.28516 0,0 -9.7826,-30.70014 -9.7826,-30.70014 l -33.5287,29.32487 c -44.5075,23.00389 -285.24419,17.50295 -321.75031,0 l 0,-29.32487 -34.50976,29.76252 c -2.50046,27.50457 -447.94678,25.5668 -489.95388,-0.43765 l -20.62846,-7.28242 95.57862,-144.33693 c 0,0 -13.03339,-36.41238 -13.03339,-36.41238 z M 289.30599,-258.62586 C 272.7259,-180.62311 133.29381,194.16677 13.847985,153.17502 L 289.30599,-258.62586 z m 1969.25621,74.56958 c -43.6391,17.15384 -142.1008,18.65002 -210.0043,0 l -42.5072,0 84.4443,75.47777 36.6739,-3.67257 c 35.0655,-8.19344 -35.5277,740.33201 -281.5693,748.33336 l -45.7397,29.50499 318.155,0 11.8674,-29.50499 -76.3236,-63.16687 47.4491,-179.3741 112.0029,0 c 0,0 30.5802,-29.50498 30.5802,-29.50498 56.0094,-8.00136 157.0264,268.04528 -19.0033,272.04595 0,0 -52.5088,-2e-4 -52.5088,-2e-4 0,0 6.2041,29.50519 6.2041,29.50519 l 395.4457,0 2.6059,-29.50499 -95.1409,-79.70116 -195.0956,-766.9419 -27.5358,26.5045 z m -1887.28772,14.65872 76.70053,64.47964 33.81822,-10.34548 C 523.95744,101.54344 594.86,620.28252 421.06298,636.08228 313.90336,906.95544 -306.42728,859.76077 -307.86366,787.94384 l 62.80361,-28.84177 616.33453,-928.49963 z m 557.59817,22.83979 c 0,0 55.00537,34.08392 55.00537,34.08392 l 37.45168,-12.79907 c 72.3221,-5.39851 195.1146,730.25585 -100.77136,761.85529 l 9.80268,-43.12098 0,-339.44327 -35.42598,24.48767 C 880.57157,762.55225 619.88265,577.6076 619.88265,577.6076 c 0,0 35.39686,-29.30574 35.39686,-29.30574 l 0,-270.28008 51.5475,0 73.9852,106.83406 c 0,0 44.50808,-9.42514 44.50808,-9.42514 l 0,-302.861579 -35.47503,32.645459 c -4.30903,129.62968 -153.40873,117.92087 -169.20849,83.80783 l 35.12305,-28.51011 0.0942,-265.3192 107.647,0 23.24632,-29.51444 c 84.74402,-28.72677 108.11577,258.60232 108.11577,258.60232 0,0 -28.00073,22.31235 -28.00073,22.31235 l 62.01438,0.40623 0,-293.55746 0,0 0,0 0,0 0,0 0,0 0,0 0,0 0,0 0,0 0,0 0,0 0,0 0,0 0,0 0,0 0,0 0,0 0,0 0,0 0,0 0,0 0,0 0,0 0,0 0,0 0,0 0,0 0,0 0,0 0,0 0,0 0,0 0,0 0,0 0,0 0,0 0,0 0,0 0,0 0,0 0,0 0,0 0,0 0,0 0,0 0,0 0,0 0,0 0,0 0,0 0,0 0,0 0,0 0,0 0,0 0,0 0,0 0,0 0,0 0,0 0,0 0,0 0,0 0,0 0,0 0,0 0,0 0,0 0,0 0,0 0,0 0,0 0,0 0,0 0,0 0,0 0,0 0,0 0,0 0,0 0,0 0,0 0,0 0,0 0,0 0,0 0,0 0,0 0,0 0,0 0,0 0,0 0,0 0,0 0,0 0,0 0,0 0,0 0,0 0,0 0,0 0,0 0,0 0,0 0,0 0,0 z m 691.11285,734.62994 34.0057,-40.8489 0,-641.264317 c 0,0 -34.0057,-39.010623 -34.0057,-39.010623 332.645,-86.33329 294.0227,831.07482 0,721.12384 z M 2165.0816,42.818021 C 2368.756,155.15602 2365.708,387.09563 2087.2824,305.02636 l 43.2894,-28.50482 31.5053,-109.51853 3.0045,-124.184989 z M -58.222218,258.21254 c 0,0 39.100935,18.56584 39.100935,18.56584 -17.002854,33.50567 -71.29117,30.76656 -71.29117,30.76656 l 32.190235,-49.3324 z m -105.734262,162.1458 41.14365,19.35093 c 0,0 -273.8861,346.36705 -282.88765,344.24169 l 241.744,-363.59262 z"
           sodipodi:nodetypes="cccccccccccccccccccccccccccccccccccccccccccccccccccccccccccccccccccccccccccccccccccccccccccccccccccccccccccccccccccccccccccccccccccccccccccccccccccccccccccccccccccccccccccccccccccccccccccccccccccccccccccccccccccccccccccccccc" />
        <path
           id="path3383"
           style="fill:#c71a29;fill-opacity:1;display:inline"
           d="M 289.23638,-258.52369 83.538425,121.74537 14.401772,152.34434 c 0,0 -4.04568,-65.459098 -4.04568,-65.459098 L 289.23638,-258.52369 z m 729.66912,134.07759 -0.1142,694.01715 -98.23261,67.01132 453.38641,0 -0.4062,-359.46699 -105.0491,300.95711 c 0,0 -99.5793,0 -99.5793,0 l 0.062,-703.61892 c 0,0 81.6469,-55.50933 81.6469,-55.50933 l -321.75028,0 90.03668,56.60966 -3e-4,0 z m 1239.6569,-59.61018 -210.0045,0 78.6383,71.80134 -191.7512,681.82599 -89.8454,66.51123 242.5029,0 -69.8309,-56.07237 56.1345,-215.97399 169.1848,4.1e-4 45.6015,216.34864 -64.6985,55.69691 309.2398,0 -81.7951,-67.35127 -193.3762,-752.78689 z m -850.6077,4.00067 77.4101,64.4523 0,697.96562 -91.7615,54.22006 194.1267,0 c 106.7324,-3.85083 183.1689,-26.24293 246.1626,-80.61526 59.612,-53.93144 92.2928,-126.91125 105.6157,-220.15431 10.4635,-72.84734 9.6703,-146.67551 -1.4691,-219.38079 -12.394,-73.931158 -36.7686,-132.136385 -75.3877,-179.967922 -27.5644,-34.867941 -64.404,-60.492808 -104.0801,-80.013528 -48.9436,-22.35766 -105.0028,-34.4223 -168.0909,-36.50617 -92.2713,-0.82399 -137.0742,-0.65903 -182.5258,0 z m 342.6154,134.585249 c 40.3818,60.174598 54.1325,133.323818 63.0106,203.971971 12.1929,125.15694 -7.5406,269.03905 -75.7003,358.06048 -29.0502,39.39166 -72.0602,71.36246 -117.893,71.51008 8e-4,-240.3747 -6e-4,-480.74912 0,-721.12384 57.1964,-0.25476 107.4981,51.215628 130.5827,87.581309 z m 481.1437,350.496721 -144.4314,0 77.7952,-262.044286 66.6362,262.044286 z m -2362.08647,68.19515 4.62303,65.10678 c 0,0 -278.85507,343.9748 -278.85507,343.9748 0,0 205.40787,-377.75992 205.40787,-377.75992 0,0 68.82417,-31.32166 68.82417,-31.32166 z m 104.955189,-162.5861 c 0,0 4.469527,65.27835 4.469527,65.27835 l -68.636597,30.36279 c 0,0 -4.094418,-65.1985 -4.094418,-65.1985 0,0 68.261488,-30.44264 68.261488,-30.44264 z m 458.268561,-543.23539 -885.51257,-9.2e-4 -97.53215,263.063998 246.35414,-197.533378 c 166.94222,0.0803 333.884658,-0.12152 500.82684,0.0174 l -740.43372,1122.17336 880.72691,-1e-4 83.78366,-219.03701 473.87085,0 0,-357.57642 -104.6444,298.85951 -170.11513,0 0,-330.82164 100.88495,0 68.7848,94.89115 0,-236.22027 -68.51156,83.79217 -100.68105,0 0,-323.05479 165.87927,-9e-5 c 0,0 108.33081,258.32352 108.33081,258.32352 l 0,-305.33145 -490.45788,0 76.38792,66.09694 0,698.16895 -59.72893,52.87222 -191.71979,152.02569 -537.15324,-0.18753 C -179.7996,594.45331 -51.873507,400.92998 76.068426,207.4172 l 356.782654,-540.01614 0,-10e-4 0,-4e-5 z"
           sodipodi:nodetypes="ccccccccccccccccccccccccccccccccccccccccccccccccccccccccccccccccccccccccccccccccccccccccccccccc" />
      </g>
      <path
         d="m 592.04767,153.62214 c 4.27569,3.02545 4.64149,7.91326 4.61104,12.72391 -0.53517,4.8128 -2.59854,8.99048 -7.46395,10.10786 -2.55241,0.21411 -4.89162,0.45787 -6.85338,-0.87026 0,0 0.007,-23.26608 0.007,-23.26608 3.42332,-0.60308 6.64247,-0.36145 9.69937,1.30457 z m 44.88054,-2.07037 c 6.97005,0.77087 8.61559,7.00634 8.85387,13.59012 0.66739,5.70627 -3.9377,12.459 -8.44214,11.93195 -5.84862,0.0296 -8.6117,-6.65094 -8.97287,-12.60959 -0.39687,-6.18085 2.1716,-12.37553 8.56114,-12.91248 z m -64.40289,-0.62656 c 0.006,0.54964 0.20071,0.8909 0.80061,0.78668 1.39723,0.0895 2.62836,0.51643 2.56137,2.07506 -0.005,7.30734 -0.009,14.61467 -0.0131,21.922 -0.69921,1.02509 -2.05464,1.69823 -3.29807,1.66731 -0.45229,-0.1219 -0.38852,1.10492 0.16233,0.78262 6.50788,-0.0105 13.01575,-0.0169 19.52362,-0.0203 8.82878,-1.63385 10.68369,-7.62287 10.87709,-13.51679 0.30409,-9.26801 -7.14626,-15.06574 -16.47443,-14.23961 -5.69034,0.10973 -8.45458,0.26866 -14.13937,0.54302 z m -146.34227,0.33417 c 2.39093,0.14239 2.96715,0.59765 3.23023,1.10692 l 0.11834,23.0781 c -0.35373,0.72773 -0.91187,1.42092 -2.56888,1.9284 l -1.00247,0.007 c -0.56751,-0.0223 -0.16498,0.66085 0,0.88414 l 9.35655,-0.18797 8.40961,0.1177 6.91312,0.039 0.17402,-8.33666 c -0.25327,-0.12392 -0.60185,-0.17541 -0.94676,0.0487 -1.59066,3.22783 -1.81536,5.27167 -4.68459,6.2403 -0.4841,0.40918 -4.98104,0.67191 -7.09735,0.18224 -1.46677,-0.0919 -1.91006,-0.73149 -2.09973,-1.58615 l 0.0835,-22.27549 c 0.68993,-0.96318 1.94053,-1.01069 3.20936,-1.14173 0.30341,-0.27672 0.2498,-0.58808 0.15315,-0.82843 l -1.23918,-0.0557 c -0.73291,0.009 -2.68028,0.12689 -4.21185,0.17404 -0.7702,0.21922 -1.7177,0.15263 -2.78468,0 l -2.50622,-0.0975 -2.50622,-0.18101 c -0.27381,0.35556 -0.39017,0.67614 0,0.88416 z m -62.74272,-0.81449 -2.19275,0.0418 -2.45399,0.25065 -2.78468,-0.0835 c -1.53158,-0.0472 -3.52551,-0.18286 -4.26066,-0.19149 -0.39911,0.01 -0.79822,-0.0615 -1.19733,0.0732 l 0,0.65441 0.97464,0.16707 c 2.31844,0.2744 2.19881,1.18479 2.47837,1.99105 l 0,22.1522 c -0.5498,0.80285 -0.96214,1.654 -3.17453,1.87271 -0.34404,0.007 -0.72161,-0.0435 -0.75197,0.50125 -0.002,0.80567 2.20895,0.21112 2.97971,0.24364 3.57237,-0.23163 5.10068,-0.22605 8.24268,0.007 0.92184,-0.0533 2.43021,0.61874 2.62812,-0.27847 0.0994,-0.33999 -0.0443,-0.54323 -0.68579,-0.46644 -0.86704,-0.20506 -1.56513,0.0187 -3.00052,-1.62904 l 0,-10.72271 11.91847,8.9e-4 0.11833,10.40863 c -0.45911,0.77099 -0.78699,1.56946 -3.18149,1.93537 -0.31405,0.0354 -0.69841,-0.007 -0.61263,0.47338 -0.23944,0.87421 1.81791,0.18661 2.72899,0.27847 l 2.729,-0.18797 c 1.10086,-0.0804 2.30018,-0.1239 3.12246,0.0277 1.59284,0.0546 2.89765,0.22663 3.56059,0.23329 0.79022,0.17237 1.51721,0.1135 1.61532,-0.31679 -0.0145,-0.21031 -0.14683,-0.37343 -0.39344,-0.49087 -1.35178,0.0391 -2.73548,-0.48052 -3.22666,-1.74122 l 0,-22.79964 c 0.34285,-1.39508 1.93764,-1.23844 2.31129,-1.43673 0.67071,0.0478 1.44117,0.0255 1.22881,-0.52904 0.11092,-0.71106 -0.98022,-0.34765 -2.14776,-0.46648 -0.61185,0.0697 -2.46796,0.10246 -3.45996,0.34435 -2.24236,0.17461 -0.61831,0.0609 -2.92024,-0.0376 -0.55647,-0.16169 -1.75365,-0.35097 -3.3453,-0.28941 -0.14291,0.0103 -1.31239,-0.23449 -1.55945,0.41432 -0.11928,0.5073 0.92327,0.49368 1.30178,0.56039 1.29638,0.12441 1.86619,0.76486 2.24869,1.43759 l -0.11833,10.38689 -11.91847,-0.003 0,-10.38334 c 0.35749,-1.04693 1.28609,-1.30312 2.23471,-1.53157 l 1.3297,0 0.19156,-0.41419 c -0.13148,-0.18655 0.0323,-0.56102 -0.55727,-0.45607 z m -39.60849,6.39083 c -0.27359,1.90447 -0.42447,2.10297 0.0713,2.10297 l 0.4648,-0.0493 0.64743,-1.28097 c 1.05174,-2.15146 2.36471,-4.12528 5.04029,-5.17254 l 3.23719,-0.007 -0.11835,23.70466 c -0.50023,0.63598 -1.5164,1.12866 -3.68273,1.30184 l -0.24368,0.38985 0.2924,0.4734 2.70812,-0.11135 c 3.36539,-0.42699 5.30329,-0.39717 8.77871,0 l 2.65934,0.094 0.22638,-0.51173 c 0.0212,-0.31845 -0.70069,-0.38401 -1.68144,-0.47688 -0.81146,-0.26196 -1.62801,-0.60046 -2.48523,-1.54893 l 0,-23.3148 c 2.81496,-0.0799 3.7374,-0.25633 5.68076,1.13476 1.2579,1.33623 2.44493,2.88499 3.33467,5.32571 l 0.84236,0 -0.83541,-8.57684 -4.00995,0.54302 -8.24267,0 -8.24268,0 c -1.16484,-0.16162 -2.46926,-0.22587 -3.37643,-0.54998 l -0.47339,-0.1462 c -0.13042,2.2313 -0.30131,4.45958 -0.59176,6.67628 z m 167.30774,-6.28505 c -8.42596,2.09125 -11.62411,8.55796 -10.78851,16.23576 0.84495,5.58466 3.54159,8.10334 8.3765,10.5005 5.53182,1.96193 11.79544,1.78316 17.41228,0.26596 2.05417,-0.19598 1.03181,-2.5756 1.32121,-3.99142 0.0487,-2.21274 0.0975,-4.42548 0.14625,-6.63823 0.56234,-1.3215 2.29165,-0.8075 3.04288,-1.40318 0.11342,-1.30582 -1.1804,-0.39899 -1.78618,-0.5062 -3.72339,-0.004 -7.4468,-0.008 -11.17019,-0.012 -0.15001,1.49787 2.2405,0.44194 2.92477,1.61073 0.75116,0.37515 0.66153,1.14943 0.63963,1.84664 0,2.59759 0,5.43033 0,8.02791 -10.22458,2.581 -14.74829,-3.86183 -14.49935,-12.23757 -0.35491,-7.27842 1.75548,-12.15254 9.32919,-12.68313 5.91573,-0.0839 8.38451,1.78138 10.52537,6.97068 1.87563,1.21649 0.40166,-2.1757 0.60184,-3.11605 -0.15939,-1.66546 -0.31208,-3.33155 -0.47114,-4.99704 -1.15453,0.42641 -2.40966,0.58914 -3.73619,0.22675 -3.84225,-0.63416 -8.02877,-0.98082 -11.86836,-0.10008 z m 149.24164,-0.45388 c -3.79904,-0.002 -7.89429,-0.3441 -11.29528,1.69331 -4.49177,2.16624 -7.37001,7.16097 -7.10388,12.12574 -0.36291,4.68567 1.81415,9.55679 5.81149,12.12234 4.46664,2.99333 10.30717,3.29397 15.35776,1.78664 4.27449,-1.37874 7.84659,-4.97407 8.80563,-9.4145 1.19544,-4.8051 0.36102,-10.42786 -3.20746,-14.05798 -2.23657,-2.2981 -5.25774,-3.6368 -8.36826,-4.25555 z m 37.86934,-0.11734 c -0.90327,0.13258 -1.00047,0.63968 -2.99299,0.78318 0,0 -18.98155,0.0107 -18.98155,0.0107 -0.7772,0.75663 0.19641,0.89745 0.83669,0.99839 0.82758,0.14505 2.42169,0.55575 2.31578,1.65339 0,7.43721 0,14.87442 0,22.31162 -0.89135,0.96448 -2.08611,1.79332 -3.46354,1.64297 -0.28123,0.0946 -0.38705,1.07005 0.1197,0.91767 3.69926,-0.27719 7.41532,-0.52567 11.11865,-0.15332 0.75,0.0538 1.50004,0.1077 2.25004,0.16157 -0.0705,-0.32863 0.34146,-0.92292 -0.36843,-0.93009 -1.07787,0.0144 -3.15921,-0.66877 -3.19594,-1.69815 0,0 0,-11.10585 0,-11.10585 0,0 5.23089,0.006 5.23089,0.006 2.31204,0.44863 3.07922,2.45409 3.84069,4.4486 0.46866,0.0411 1.28203,0.39444 0.88894,-0.44861 -0.19516,-1.53199 -0.69636,-3.03353 -0.59553,-4.59135 -0.0357,-1.87254 0.32047,-3.7204 0.71614,-5.54186 -0.36092,-0.0361 -1.00367,-0.30338 -1.02906,0.34696 -0.75845,2.46295 -2.2129,4.42411 -4.99718,4.33129 0,0 -2.70297,0 -4.05443,0 0,-3.65258 0,-7.14764 0,-10.80023 0,0 7.01567,-0.007 7.01567,-0.007 3.49614,0.66544 4.54291,2.97868 5.77997,5.90615 0.6702,0.13222 0.93459,0.007 0.78406,-0.7936 -0.46748,-2.48758 -0.66409,-3.44118 -0.70316,-7.08793 -0.0981,-0.24492 -0.24499,-0.41689 -0.51541,-0.36014 z m -144.58322,0.10729 c -0.78077,0.4064 -1.73961,0.51602 -2.67098,0.67141 l -18.94774,-0.007 c -0.55022,0.21158 -0.76136,0.56168 0.12558,0.98104 1.36525,0.14627 2.67056,0.48983 2.89608,1.58031 l 0,22.187 c -0.76677,1.36998 -2.09126,1.90338 -3.78718,1.87965 -0.0295,0.2983 0.0395,0.5717 0.13226,0.84934 0.67338,-0.0815 20.50701,-0.18908 24.81853,-0.0348 0.15674,-2.04689 0.30328,-4.13304 0,-7.94332 l -0.80755,0 c -0.77005,2.86394 -1.64514,5.63592 -4.87321,6.34909 -0.90293,0.0756 -3.51693,0.0144 -6.32819,-0.0626 -1.01129,-0.2473 -2.07166,0.11844 -2.93786,-1.94233 l 0.0626,-5.01243 0.0696,-5.01244 5.07507,0 c 2.90287,0.35552 3.31672,2.66667 4.25362,4.56688 0.48721,0.0849 0.73102,-0.0432 0.77276,-0.34809 -0.26539,-1.57787 -0.50143,-3.19977 -0.61961,-4.99851 -0.20855,-1.81981 0.32313,-3.52623 0.65449,-5.29091 -0.31183,-0.19743 -0.60874,-0.30894 -0.84237,-0.0557 -0.9346,2.05029 -1.738,4.27915 -3.96319,4.57283 l -5.33077,-0.006 0,-10.69321 6.89134,0 c 2.00898,0.21662 4.17452,1.15729 5.76426,5.61429 0.37033,0.36707 0.70437,0.41301 0.9829,-0.033 -0.42652,-3.81175 -0.7194,-6.08413 -0.88465,-7.8578 -0.13662,-0.0446 -0.36148,-0.12387 -0.50588,0.0456 z m -77.1869,2.98965 0,22.55598 c -1.25016,1.47936 -2.51549,1.69707 -3.57137,1.83092 -0.31271,0.21339 -0.19316,0.54312 0.1252,0.79365 l 10.46349,-0.16014 14.13772,0.16768 c 0.29958,-3.26752 0.15531,-5.64738 0,-8.00506 l -0.84783,-0.009 c -0.71898,2.79755 -1.75208,5.61751 -4.65737,6.28644 -0.44757,0.0682 -1.32654,0.15245 -6.50924,0 -1.21527,-0.3065 -2.56346,-0.42479 -2.92391,-1.94233 l 0.13228,-10.02487 5.13078,-0.0139 c 1.91425,0.33594 2.8483,1.26025 3.42516,3.00746 0.30633,0.59401 0.43096,1.64229 1.0025,1.57334 0.77473,0.24949 0.354,-0.97236 0.22276,-1.83789 -0.58261,-2.81226 -0.37081,-5.68555 0.27172,-8.46545 1.3e-4,-0.73793 -0.40129,-0.51 -0.75882,-0.38985 -0.92617,1.79879 -1.15425,4.08881 -3.94731,4.57385 l -5.34661,-0.007 0,-10.6932 7.79714,0 c 1.96043,0.71648 3.5638,1.98047 4.41372,4.39981 0.32032,0.92765 0.65436,1.74544 1.12086,1.50372 0.46423,-0.0874 0.25488,-0.75218 0.23666,-1.25311 -0.32005,-2.09134 -0.56593,-3.54084 -0.5987,-6.31426 -0.0638,-0.71999 -0.46447,-0.65619 -0.73098,-0.63353 -0.63086,0.43213 -1.51601,0.68262 -2.66665,0.74346 l -19.14793,-0.0107 c -0.33803,0.20256 -0.21185,1.14111 0.33065,1.00074 1.17554,0.0635 2.17412,0.38145 2.89608,1.32271 l 0,0 z m 93.69082,-3.11884 c -2.23477,0.18395 -3.58801,0.42665 -7.88067,0.47339 l -2.71508,0.21582 c -0.13562,0.0957 -0.25062,0.20792 0,0.61263 2.39387,0.35398 3.59247,0.94702 3.8869,1.72089 l 0.0196,20.94008 c -0.42235,1.47459 -1.20955,2.87541 -4.35213,3.54991 l 0,0.82845 c 1.89084,-0.16242 3.78235,-0.32889 5.68076,-0.36202 l 5.68076,0.36202 0,-0.84933 c -1.48309,-0.48579 -2.7753,-0.36955 -4.90104,-2.88215 l 0,-20.00799 c 6.7711,7.72687 12.38849,16.29293 19.41621,23.80212 1.49108,0.89425 1.84598,0.0508 2.0955,-0.95375 l -0.0105,-22.8797 c 0.62293,-1.59803 1.95666,-2.70528 4.13875,-3.22676 0.29281,-0.25526 0.1419,-0.51052 0.0835,-0.76579 -0.25532,-0.0642 -0.55706,-0.0743 -1.03034,-0.10443 -0.38431,-0.0245 -1.90447,0.0684 -3.51566,0.22277 -0.57538,0.10032 -1.29003,0.11795 -1.82397,0 -1.2666,-0.095 -2.36474,-0.10672 -2.96571,-0.1462 l -1.9075,-0.12531 c -0.1752,0.38822 -0.19585,0.68374 0,0.84934 3.97076,1.10459 4.09383,2.20918 4.79661,3.31378 l -0.007,13.81205 -14.68921,-18.39983 1.1e-4,1e-5 9e-5,0 -5e-5,0 -9e-5,0 z m -147.71375,0.80756 -19.15866,-0.0139 c -0.78642,0.36362 -0.20506,0.71072 0.38986,0.93983 0.87559,0.0269 2.43862,0.41823 2.84038,1.2183 l 0,22.59079 c -0.5585,0.82107 -1.11999,1.64097 -3.17455,1.8727 -0.48998,-0.0242 -0.61354,0.28036 -0.62135,0.44126 0.0127,0.33 0.5326,0.50441 0.53458,0.44645 1.4821,0.10295 3.27779,-0.10241 5.30652,-0.2162 2.55757,-0.0468 7.9871,0.0494 7.67389,0.0315 3.95299,-0.0865 3.82935,0.2725 11.44453,0.20548 l 0,-8.03039 -0.80061,0 c -1.08763,2.75639 -1.0006,6.11597 -6.6902,6.50921 l -5.86873,-0.43859 c -0.69058,-0.29659 -1.21355,-0.47565 -1.45143,-1.67766 l -0.002,-10.07373 5.10919,0.006 c 2.05847,0.2046 2.91268,1.61344 3.57815,3.21102 l 0.44555,1.1835 c 0.38037,0.31209 0.69143,0.21608 0.95375,-0.16708 -0.42325,-2.41391 -1.0337,-4.59185 -0.29927,-8.46546 0.31719,-1.63299 0.3951,-1.79356 -0.035,-1.97727 -0.93816,-0.40076 -1.1361,4.37438 -4.25326,4.65734 l -5.49998,-0.007 -0.004,-10.68973 7.1053,0.08 c 3.17821,0.4007 4.1499,2.16528 5.81304,5.82 0.52844,0.0876 0.81208,-0.0697 0.71006,-0.61263 -0.29613,-2.11345 -0.54263,-3.35159 -0.71006,-7.24019 0.0714,-0.20953 -0.0789,-0.43569 -0.50125,-0.42466 l -7e-5,1e-5 -2e-5,-1e-5 c -0.38845,0.49192 -1.82146,0.76661 -2.83353,0.82147 z"
         style="fill:#d31a2a;fill-opacity:1;display:inline"
         id="path3425" />
    </g>
  </g>
</svg>
